<svg xmlns="http://www.w3.org/2000/svg" xmlns:xlink="http://www.w3.org/1999/xlink" version="1.1" x="0px" y="0px" viewBox="0 0 100 125" enable-background="new 0 0 100 100" xml:space="preserve"><path fill-rule="evenodd" clip-rule="evenodd" d="M24.431,61.327C15.907,58.141,10,51.223,10,43.199s5.907-14.942,14.431-18.128  c-1.367,0.879-2.627,1.924-3.754,3.107c-3.662,3.845-5.927,9.156-5.927,15.021s2.265,11.176,5.927,15.021  C21.804,59.403,23.063,60.448,24.431,61.327z"/><path fill-rule="evenodd" clip-rule="evenodd" d="M30.991,62.942c-1.414-0.183-2.788-0.459-4.111-0.822  c-2.189-1.038-4.165-2.483-5.842-4.243c-3.576-3.755-5.788-8.945-5.788-14.677c0-5.733,2.212-10.922,5.788-14.677  c1.677-1.76,3.652-3.205,5.842-4.243c1.323-0.363,2.697-0.64,4.111-0.822c-1.289,1.102-2.443,2.72-3.4,4.732  c-1.832,3.848-2.966,9.155-2.966,15.01s1.134,11.163,2.966,15.01C28.548,60.221,29.702,61.84,30.991,62.942z"/><path fill-rule="evenodd" clip-rule="evenodd" d="M45.569,25.071C54.093,28.257,60,35.176,60,43.199s-5.907,14.942-14.431,18.128  c1.367-0.879,2.627-1.924,3.754-3.107c3.662-3.845,5.927-9.156,5.927-15.021s-2.265-11.176-5.927-15.021  C48.196,26.995,46.937,25.95,45.569,25.071z"/><path fill-rule="evenodd" clip-rule="evenodd" d="M39.009,23.457c1.414,0.183,2.787,0.459,4.111,0.822  c2.188,1.038,4.165,2.483,5.842,4.243c3.576,3.755,5.788,8.944,5.788,14.677c0,5.732-2.212,10.922-5.788,14.677  c-1.677,1.76-3.653,3.205-5.842,4.243c-1.324,0.363-2.697,0.64-4.111,0.822c1.289-1.102,2.442-2.721,3.4-4.732  c1.832-3.848,2.966-9.155,2.966-15.01s-1.134-11.163-2.966-15.01C41.451,26.177,40.298,24.558,39.009,23.457z"/><path fill-rule="evenodd" clip-rule="evenodd" d="M35,23.199c0.849,0,1.688,0.034,2.517,0.101c1.605,0.944,3.053,2.767,4.216,5.211  c1.787,3.752,2.893,8.945,2.893,14.688s-1.105,10.936-2.893,14.688c-1.163,2.444-2.61,4.267-4.216,5.211  c-0.828,0.066-1.668,0.101-2.517,0.101c-0.85,0-1.688-0.034-2.517-0.101c-1.605-0.944-3.053-2.767-4.217-5.211  c-1.786-3.752-2.892-8.945-2.892-14.688s1.105-10.936,2.892-14.688c1.164-2.445,2.611-4.267,4.217-5.211  C33.312,23.233,34.15,23.199,35,23.199z"/><path fill-rule="evenodd" clip-rule="evenodd" d="M35.5,19.209c6.673,0.14,7.603,1.792,7.329,3.96  c-2.471-0.629-5.101-0.97-7.829-0.97s-5.358,0.34-7.829,0.97c-0.273-2.168,0.7-3.82,7.329-3.96V5.5C34.5,5.224,34.724,5,35,5  s0.5,0.224,0.5,0.5V19.209z"/><path fill-rule="evenodd" clip-rule="evenodd" d="M75.3,16.525c4.004,0.084,4.563,1.075,4.398,2.376  C78.215,18.524,76.638,18.32,75,18.32s-3.216,0.204-4.698,0.582c-0.164-1.301,0.421-2.292,4.398-2.376V5.3C74.7,5.134,74.835,5,75,5  s0.3,0.134,0.3,0.3V16.525z"/><path fill-rule="evenodd" clip-rule="evenodd" d="M34.103,64.186v22.41c0,0.276-0.225,0.5-0.5,0.5s-0.5-0.224-0.5-0.5V64.144  C33.435,64.163,33.768,64.176,34.103,64.186z"/><path fill-rule="evenodd" clip-rule="evenodd" d="M32.481,64.101V94.5c0,0.276-0.223,0.5-0.5,0.5c-0.275,0-0.5-0.224-0.5-0.5V64.007  C31.813,64.043,32.146,64.075,32.481,64.101z"/><path fill-rule="evenodd" clip-rule="evenodd" d="M29.685,63.759v26.122c0,0.276-0.224,0.5-0.5,0.5c-0.275,0-0.5-0.224-0.5-0.5  V63.574C29.017,63.641,29.349,63.703,29.685,63.759z"/><path fill-rule="evenodd" clip-rule="evenodd" d="M41.856,63.46v29.243c0,0.276-0.225,0.5-0.5,0.5c-0.277,0-0.5-0.224-0.5-0.5  V63.664C41.192,63.602,41.524,63.533,41.856,63.46z"/><path fill-rule="evenodd" clip-rule="evenodd" d="M37.358,64.112v27.709c0,0.276-0.225,0.5-0.5,0.5c-0.276,0-0.5-0.224-0.5-0.5  v-27.65C36.693,64.156,37.026,64.136,37.358,64.112z"/><path fill-rule="evenodd" clip-rule="evenodd" d="M39.46,63.89v20.611c0,0.276-0.224,0.5-0.5,0.5c-0.275,0-0.5-0.224-0.5-0.5V64.014  C38.796,63.977,39.129,63.936,39.46,63.89z"/><path fill-rule="evenodd" clip-rule="evenodd" d="M68.657,41.796C63.544,39.885,60,35.734,60,30.92  c0-4.814,3.544-8.965,8.657-10.877c-0.819,0.528-1.574,1.154-2.251,1.864c-2.197,2.307-3.557,5.494-3.557,9.013  c0,3.519,1.359,6.705,3.557,9.012C67.083,40.642,67.838,41.269,68.657,41.796z"/><path fill-rule="evenodd" clip-rule="evenodd" d="M72.595,42.765c-0.848-0.109-1.673-0.275-2.467-0.493  c-1.313-0.623-2.499-1.49-3.505-2.546c-2.146-2.253-3.474-5.367-3.474-8.806c0-3.44,1.328-6.554,3.474-8.807  c1.006-1.056,2.191-1.923,3.505-2.546c0.794-0.218,1.619-0.384,2.467-0.494c-0.773,0.661-1.466,1.633-2.041,2.84  c-1.1,2.309-1.779,5.493-1.779,9.006c0,3.513,0.68,6.697,1.779,9.006C71.129,41.133,71.821,42.104,72.595,42.765z"/><path fill-rule="evenodd" clip-rule="evenodd" d="M81.342,20.042C86.456,21.955,90,26.105,90,30.92  c0,4.814-3.544,8.965-8.658,10.876c0.819-0.527,1.575-1.154,2.252-1.864c2.196-2.307,3.556-5.494,3.556-9.012  c0-3.519-1.359-6.706-3.556-9.013C82.917,21.197,82.161,20.57,81.342,20.042z"/><path fill-rule="evenodd" clip-rule="evenodd" d="M77.405,19.074c0.848,0.11,1.673,0.275,2.467,0.494  c1.313,0.623,2.499,1.49,3.505,2.546c2.146,2.253,3.474,5.367,3.474,8.807c0,3.439-1.328,6.553-3.474,8.806  c-1.006,1.056-2.191,1.923-3.505,2.546c-0.794,0.218-1.619,0.384-2.467,0.493c0.773-0.661,1.465-1.632,2.04-2.839  c1.1-2.309,1.78-5.493,1.78-9.006c0-3.513-0.681-6.698-1.78-9.006C78.87,20.707,78.179,19.735,77.405,19.074z"/><path fill-rule="evenodd" clip-rule="evenodd" d="M75,18.919c0.509,0,1.013,0.021,1.51,0.061c0.964,0.566,1.831,1.66,2.53,3.127  c1.072,2.251,1.734,5.367,1.734,8.813c0,3.445-0.662,6.561-1.734,8.813c-0.699,1.467-1.566,2.56-2.53,3.127  c-0.497,0.04-1.001,0.06-1.51,0.06c-0.51,0-1.013-0.02-1.51-0.06c-0.964-0.567-1.831-1.66-2.53-3.127  c-1.072-2.251-1.734-5.367-1.734-8.813c0-3.446,0.662-6.562,1.734-8.813c0.699-1.467,1.566-2.561,2.53-3.127  C73.987,18.94,74.49,18.919,75,18.919z"/><path fill-rule="evenodd" clip-rule="evenodd" d="M71.536,43.208v16.224c0,0.166-0.134,0.299-0.3,0.299  c-0.165,0-0.3-0.134-0.3-0.299V43.087C71.136,43.13,71.335,43.17,71.536,43.208z"/><path fill-rule="evenodd" clip-rule="evenodd" d="M73.565,43.466V57.8c0,0.166-0.135,0.3-0.301,0.3s-0.3-0.134-0.3-0.3V43.413  C73.163,43.434,73.364,43.451,73.565,43.466z"/><path fill-rule="evenodd" clip-rule="evenodd" d="M75.726,43.506v17.91c0,0.166-0.135,0.299-0.3,0.299s-0.3-0.134-0.3-0.299V43.519  C75.327,43.517,75.526,43.513,75.726,43.506z"/><path fill-rule="evenodd" clip-rule="evenodd" d="M76.828,43.433v16.042c0,0.166-0.134,0.3-0.3,0.3s-0.301-0.134-0.301-0.3V43.481  C76.429,43.468,76.63,43.452,76.828,43.433z"/><path fill-rule="evenodd" clip-rule="evenodd" d="M78.593,43.184v14.792c0,0.166-0.135,0.3-0.301,0.3s-0.3-0.134-0.3-0.3V43.287  C78.193,43.255,78.394,43.221,78.593,43.184z"/><path fill-rule="evenodd" clip-rule="evenodd" d="M79.959,42.869v16.474c0,0.166-0.134,0.3-0.3,0.3s-0.301-0.134-0.301-0.3V43.02  C79.562,42.973,79.761,42.923,79.959,42.869z"/><text x="0" y="115" fill="#000000" font-size="5px" font-weight="bold" font-family="'Helvetica Neue', Helvetica, Arial-Unicode, Arial, Sans-serif">Created by Krisada</text><text x="0" y="120" fill="#000000" font-size="5px" font-weight="bold" font-family="'Helvetica Neue', Helvetica, Arial-Unicode, Arial, Sans-serif">from the Noun Project</text></svg>